<svg xmlns="http://www.w3.org/2000/svg" width="400" height="140" viewBox="0 0 400 140" font-family="'Inter','Segoe UI',system-ui,-apple-system,sans-serif">
 <defs><linearGradient id="bg" x1="0" y1="0" x2="1" y2="1">
    <stop offset="0" stop-color="#104AFF"/>
    <stop offset="0.5" stop-color="#00BFFF"/>
    <stop offset="1" stop-color="#1BF157"/>
  </linearGradient></defs>
 <rect x="0" y="0" width="400" height="140" fill="#ffffff"/>
 <rect class="barL" x="0" y="0" width="4" height="140" fill="url(#bg)"/>
 <path class="cut" d="M400 0 L400 140 L248.9 140 C 284.4 110.5 284.4 36.8 320.0 0 Z" fill="url(#bg)"/>
 
 <rect x="18" y="16" width="4" height="14" rx="2" fill="#1BF157"/><text x="30" y="28" font="700 13 'Inter','Segoe UI',system-ui,-apple-system,sans-serif" letter-spacing="0.08em" fill="#051A4A">PROJECTS</text>
 <text x="18" y="50" font="700 17 'JetBrains Mono','Fira Code','SFMono-Regular',ui-monospace,Consolas,monospace" font-size="17" fill="#051A4A">06 · PLAYGROUND</text>
 <text x="18" y="74" font="400 12 'Inter','Segoe UI',system-ui,-apple-system,sans-serif" fill="#33415C">Playground</text>
 <rect class="b2" x="18" y="84" width="266" height="6" rx="3" fill="#33415C22"/>
 <rect class="b1 bar" x="18" y="84" width="248.26666666666668" height="6" rx="3" fill="#1BF157" opacity=".45"/>
 <rect class="b3 bar" x="18" y="84" width="248.26666666666668" height="6" rx="3" fill="#1BF157"/>
 <text x="18" y="118" font="600 11 'JetBrains Mono','Fira Code','SFMono-Regular',ui-monospace,Consolas,monospace" fill="#1BF157">Sandbox to prototype models &amp; prompts fast.</text>
 <text x="170" y="118" font="600 11 'JetBrains Mono','Fira Code','SFMono-Regular',ui-monospace,Consolas,monospace" fill="#33415C">MAINTAINED</text>

 <rect x="0.5" y="0.5" width="399" height="139" rx="14" fill="none" stroke="#d6e0f0"/>
</svg>