<svg xmlns="http://www.w3.org/2000/svg" width="400" height="216" viewBox="0 0 400 216" role="img">
  <defs>
    <linearGradient id="ateam" x1="0" y1="0" x2="1" y2="1"><stop offset="0" stop-color="#d4430c"/><stop offset="1" stop-color="#0b5cad"/></linearGradient>
    <linearGradient id="bteam" x1="0" y1="0" x2="1" y2="0"><stop offset="0" stop-color="#fb923c"/><stop offset="1" stop-color="#d4430c"/></linearGradient>
    <filter id="steam" x="-10%" y="-10%" width="120%" height="135%"><feDropShadow dx="0" dy="10" stdDeviation="16" flood-color="#5a2a00" flood-opacity="0.12"/></filter>
    <clipPath id="cl"><rect x="0" y="0" width="400" height="216" rx="20"/></clipPath>
  </defs>
  <g clip-path="url(#cl)">
    <rect x="0" y="0" width="400" height="216" rx="20" fill="#ffffff" stroke="#f0e6df" filter="url(#steam)"/>
    <circle cx="376" cy="20" r="58" fill="url(#ateam)" opacity=".06"/>
    <rect x="0" y="0" width="6" height="216" rx="3" fill="url(#ateam)"/>
    <g transform="translate(26 22)"><rect x="0" y="-2" width="60.4" height="26" rx="13" fill="url(#ateam)"/><text x="15" y="16" font-family="'Inter','Segoe UI',system-ui,sans-serif" font-size="12" font-weight="700" fill="#ffffff" letter-spacing="1.4">TEAM</text></g>
    <circle cx="92" cy="104" r="30" fill="url(#ateam)"/>
    <text x="92" y="112" text-anchor="middle" font-family="'Inter','Segoe UI',system-ui,sans-serif" font-size="22" font-weight="800" fill="#ffffff">A</text>
    <text x="92" y="154" text-anchor="middle" font-family="'Inter','Segoe UI',system-ui,sans-serif" font-size="13" font-weight="700" fill="#1f2937">Allan</text>
    <circle cx="200" cy="104" r="30" fill="url(#ateam)"/>
    <text x="200" y="112" text-anchor="middle" font-family="'Inter','Segoe UI',system-ui,sans-serif" font-size="22" font-weight="800" fill="#ffffff">N</text>
    <text x="200" y="154" text-anchor="middle" font-family="'Inter','Segoe UI',system-ui,sans-serif" font-size="13" font-weight="700" fill="#1f2937">Nathlan</text>
    <circle cx="308" cy="104" r="30" fill="url(#ateam)"/>
    <text x="308" y="112" text-anchor="middle" font-family="'Inter','Segoe UI',system-ui,sans-serif" font-size="22" font-weight="800" fill="#ffffff">S</text>
    <text x="308" y="154" text-anchor="middle" font-family="'Inter','Segoe UI',system-ui,sans-serif" font-size="13" font-weight="700" fill="#1f2937">Studio</text>
  </g>
</svg>